<?xml version="1.0" encoding="utf-8"?>
<!-- Generator: Adobe Illustrator 19.0.0, SVG Export Plug-In . SVG Version: 6.00 Build 0)  -->
<svg version="1.1" id="Layer_1" xmlns="http://www.w3.org/2000/svg" xmlns:xlink="http://www.w3.org/1999/xlink" x="0px" y="0px"
	 viewBox="0 0 449.5 51.5" style="enable-background:new 0 0 449.5 51.5;" xml:space="preserve">
<style type="text/css">
	.st0{fill:#FFFFFF;}
</style>
<g id="XMLID_2_">
	<path id="XMLID_29_" class="st0" d="M7.5,37.4l3.6-5.1c2.2,2.3,5.7,4.3,10,4.3c3.7,0,5.5-1.7,5.5-3.5c0-5.6-18.2-1.7-18.2-13.6
		c0-5.2,4.5-9.6,12-9.6c5,0,9.2,1.5,12.3,4.4L29,19.1c-2.6-2.4-6-3.5-9.2-3.5c-2.9,0-4.5,1.3-4.5,3.2c0,5,18.1,1.7,18.1,13.4
		c0,5.8-4.1,10.1-12.6,10.1C14.8,42.4,10.5,40.4,7.5,37.4z"/>
	<path id="XMLID_31_" class="st0" d="M59.6,41.8V28.6H44.7v13.2H38V10.3h6.7v12.4h14.9V10.3h6.8v31.5H59.6z"/>
	<path id="XMLID_33_" class="st0" d="M94.3,41.8l-1.9-5.3H78.9l-2,5.3h-7.7l12.2-31.5h8.4L102,41.8H94.3z M85.6,17l-4.9,13.6h9.8
		L85.6,17z"/>
	<path id="XMLID_36_" class="st0" d="M122.8,41.8l-6.2-11.2h-4.9v11.2h-6.7V10.3h14.8c6.6,0,10.6,4.3,10.6,10.2
		c0,5.6-3.5,8.6-6.9,9.4l7.1,12H122.8z M123.4,20.5c0-2.6-2-4.3-4.7-4.3h-7v8.5h7C121.4,24.7,123.4,23.1,123.4,20.5z"/>
	<path id="XMLID_39_" class="st0" d="M135.4,41.8V10.3h14.8c6.9,0,10.6,4.6,10.6,10.2c0,5.5-3.8,10.2-10.6,10.2h-8v11.2H135.4z
		 M153.8,20.5c0-2.6-2-4.3-4.6-4.3h-7.1v8.5h7.1C151.9,24.7,153.8,23.1,153.8,20.5z"/>
	<path id="XMLID_42_" class="st0" d="M200.2,41.8l-2.8-7h-15.7l-2.8,7h-4.5l12.7-31.5h4.9l12.7,31.5H200.2z M189.5,14.3l-6.7,17
		h13.4L189.5,14.3z"/>
	<path id="XMLID_45_" class="st0" d="M208.8,41.8V10.3h12.7c6.3,0,9.9,4.4,9.9,9.5s-3.6,9.5-9.9,9.5h-8.7v12.5H208.8z M227.3,19.8
		c0-3.5-2.6-6-6.3-6h-8.3v12h8.3C224.7,25.8,227.3,23.3,227.3,19.8z"/>
	<path id="XMLID_48_" class="st0" d="M236.6,41.8V10.3h12.7c6.3,0,9.9,4.4,9.9,9.5s-3.6,9.5-9.9,9.5h-8.7v12.5H236.6z M255,19.8
		c0-3.5-2.6-6-6.3-6h-8.3v12h8.3C252.5,25.8,255,23.3,255,19.8z"/>
	<path id="XMLID_51_" class="st0" d="M282.6,41.8l-8-12.5h-6.3v12.5h-3.9V10.3H277c5.8,0,9.9,3.7,9.9,9.5c0,5.7-3.9,8.8-8.2,9.2
		l8.5,12.9H282.6z M282.9,19.8c0-3.6-2.6-6-6.3-6h-8.3v12.1h8.3C280.3,25.8,282.9,23.3,282.9,19.8z"/>
	<path id="XMLID_54_" class="st0" d="M315.6,41.8l-2.8-7h-15.7l-2.8,7h-4.5l12.7-31.5h4.9l12.7,31.5H315.6z M305,14.3l-6.7,17h13.4
		L305,14.3z"/>
	<path id="XMLID_57_" class="st0" d="M324.2,41.8V10.3h3.9v31.5H324.2z"/>
	<path id="XMLID_59_" class="st0" d="M333.6,37.4l2.4-3c2,2.4,5.4,4.5,9.9,4.5c5.6,0,7.4-3,7.4-5.5c0-8.1-18.7-3.6-18.7-14.8
		c0-5.2,4.6-8.8,10.9-8.8c4.8,0,8.5,1.7,11.2,4.4l-2.4,2.9c-2.4-2.6-5.7-3.8-9.1-3.8c-3.7,0-6.5,2-6.5,5c0,7.1,18.7,3,18.7,14.8
		c0,4.5-3.1,9.3-11.6,9.3C340.3,42.4,336.3,40.3,333.6,37.4z"/>
	<path id="XMLID_61_" class="st0" d="M363.3,41.8V10.3h20.7v3.5h-16.7v10.2h16.4v3.5h-16.4v10.9h16.7v3.5H363.3z"/>
	<path id="XMLID_63_" class="st0" d="M408.4,41.8l-8-12.5h-6.3v12.5h-3.9V10.3h12.7c5.8,0,9.9,3.7,9.9,9.5c0,5.7-3.9,8.8-8.2,9.2
		l8.5,12.9H408.4z M408.7,19.8c0-3.6-2.6-6-6.3-6h-8.3v12.1h8.3C406.1,25.8,408.7,23.3,408.7,19.8z"/>
	<path id="XMLID_66_" class="st0" d="M417.1,37.4l2.4-3c2,2.4,5.4,4.5,9.9,4.5c5.6,0,7.4-3,7.4-5.5c0-8.1-18.7-3.6-18.7-14.8
		c0-5.2,4.6-8.8,10.9-8.8c4.8,0,8.5,1.7,11.2,4.4l-2.4,2.9c-2.4-2.6-5.7-3.8-9.1-3.8c-3.7,0-6.5,2-6.5,5c0,7.1,18.7,3,18.7,14.8
		c0,4.5-3.1,9.3-11.6,9.3C423.7,42.4,419.7,40.3,417.1,37.4z"/>
</g>
</svg>
